[matroska,webm @ 0x11ce177d0] Stream #21: not enough frames to estimate rate; consider increasing probesize
[matroska,webm @ 0x11ce177d0] Could not find codec parameters for stream 7 (Subtitle: hdmv_pgs_subtitle (pgssub)): unspecified size
Consider increasing the value for the 'analyzeduration' (0) and 'probesize' (5000000) options
[matroska,webm @ 0x11ce177d0] Could not find codec parameters for stream 8 (Subtitle: hdmv_pgs_subtitle (pgssub)): unspecified size
Consider increasing the value for the 'analyzeduration' (0) and 'probesize' (5000000) options
[matroska,webm @ 0x11ce177d0] Could not find codec parameters for stream 9 (Subtitle: hdmv_pgs_subtitle (pgssub)): unspecified size
Consider increasing the value for the 'analyzeduration' (0) and 'probesize' (5000000) options
[matroska,webm @ 0x11ce177d0] Could not find codec parameters for stream 10 (Subtitle: hdmv_pgs_subtitle (pgssub)): unspecified size
Consider increasing the value for the 'analyzeduration' (0) and 'probesize' (5000000) options
[matroska,webm @ 0x11ce177d0] Could not find codec parameters for stream 11 (Subtitle: hdmv_pgs_subtitle (pgssub)): unspecified size
Consider increasing the value for the 'analyzeduration' (0) and 'probesize' (5000000) options
[matroska,webm @ 0x11ce177d0] Could not find codec parameters for stream 12 (Subtitle: hdmv_pgs_subtitle (pgssub)): unspecified size
Consider increasing the value for the 'analyzeduration' (0) and 'probesize' (5000000) options
[matroska,webm @ 0x11ce177d0] Could not find codec parameters for stream 13 (Subtitle: hdmv_pgs_subtitle (pgssub)): unspecified size
Consider increasing the value for the 'analyzeduration' (0) and 'probesize' (5000000) options
[matroska,webm @ 0x11ce177d0] Could not find codec parameters for stream 14 (Subtitle: hdmv_pgs_subtitle (pgssub)): unspecified size
Consider increasing the value for the 'analyzeduration' (0) and 'probesize' (5000000) options
[matroska,webm @ 0x11ce177d0] Could not find codec parameters for stream 15 (Subtitle: hdmv_pgs_subtitle (pgssub)): unspecified size
Consider increasing the value for the 'analyzeduration' (0) and 'probesize' (5000000) options
[matroska,webm @ 0x11ce177d0] Could not find codec parameters for stream 16 (Subtitle: hdmv_pgs_subtitle (pgssub)): unspecified size
Consider increasing the value for the 'analyzeduration' (0) and 'probesize' (5000000) options
[matroska,webm @ 0x11ce177d0] Could not find codec parameters for stream 17 (Subtitle: hdmv_pgs_subtitle (pgssub)): unspecified size
Consider increasing the value for the 'analyzeduration' (0) and 'probesize' (5000000) options
[matroska,webm @ 0x11ce177d0] Could not find codec parameters for stream 18 (Subtitle: hdmv_pgs_subtitle (pgssub)): unspecified size
Consider increasing the value for the 'analyzeduration' (0) and 'probesize' (5000000) options
[matroska,webm @ 0x11ce177d0] Could not find codec parameters for stream 19 (Subtitle: hdmv_pgs_subtitle (pgssub)): unspecified size
Consider increasing the value for the 'analyzeduration' (0) and 'probesize' (5000000) options
Input #0, matroska,webm, from 'http://localhost:7070/X-Men.Apocalypse.2016.UHD.BluRay.2160p.10bit.HDR.2Audio.DTS-HD.MA.7.1.x265-beAst.mkv':
  Metadata:
    title           : MEOMEO
    encoder         : libebml v1.4.2 + libmatroska v1.6.4
    creation_time   : 2022-07-27T10:01:36.000000Z
  Duration: 02:23:58.30, start: 0.000000, bitrate: 27982 kb/s
  Chapters:
    Chapter #0:0: start 0.000000, end 498.788000
      Metadata:
        title           : 第 01 章
    Chapter #0:1: start 498.788000, end 853.184000
      Metadata:
        title           : 第 02 章
    Chapter #0:2: start 853.184000, end 1087.086000
      Metadata:
        title           : 第 03 章
    Chapter #0:3: start 1087.086000, end 1495.492000
      Metadata:
        title           : 第 04 章
    Chapter #0:4: start 1495.492000, end 1845.343000
      Metadata:
        title           : 第 05 章
    Chapter #0:5: start 1845.343000, end 2195.233000
      Metadata:
        title           : 第 06 章
    Chapter #0:6: start 2195.233000, end 2460.081000
      Metadata:
        title           : 第 07 章
    Chapter #0:7: start 2460.081000, end 2756.503000
      Metadata:
        title           : 第 08 章
    Chapter #0:8: start 2756.503000, end 2964.293000
      Metadata:
        title           : 第 09 章
    Chapter #0:9: start 2964.293000, end 3322.610000
      Metadata:
        title           : 第 10 章
    Chapter #0:10: start 3322.610000, end 3576.822000
      Metadata:
        title           : 第 11 章
    Chapter #0:11: start 3576.822000, end 3883.670000
      Metadata:
        title           : 第 12 章
    Chapter #0:12: start 3883.670000, end 4355.850000
      Metadata:
        title           : 第 13 章
    Chapter #0:13: start 4355.850000, end 4652.898000
      Metadata:
        title           : 第 14 章
    Chapter #0:14: start 4652.898000, end 4938.515000
      Metadata:
        title           : 第 15 章
    Chapter #0:15: start 4938.515000, end 5265.591978
      Metadata:
        title           : 第 16 章
    Chapter #0:16: start 5265.591978, end 5645.805000
      Metadata:
        title           : 第 17 章
    Chapter #0:17: start 5645.805000, end 5806.634000
      Metadata:
        title           : 第 18 章
    Chapter #0:18: start 5806.634000, end 5990.900000
      Metadata:
        title           : 第 19 章
    Chapter #0:19: start 5990.900000, end 6214.373000
      Metadata:
        title           : 第 20 章
    Chapter #0:20: start 6214.373000, end 6597.381000
      Metadata:
        title           : 第 21 章
    Chapter #0:21: start 6597.381000, end 6908.359000
      Metadata:
        title           : 第 22 章
    Chapter #0:22: start 6908.359000, end 7041.658000
      Metadata:
        title           : 第 23 章
    Chapter #0:23: start 7041.658000, end 7430.547000
      Metadata:
        title           : 第 24 章
    Chapter #0:24: start 7430.547000, end 7676.710000
      Metadata:
        title           : 第 25 章
    Chapter #0:25: start 7676.710000, end 7859.100000
      Metadata:
        title           : 第 26 章
    Chapter #0:26: start 7859.100000, end 7974.091000
      Metadata:
        title           : 第 27 章
    Chapter #0:27: start 7974.091000, end 8638.304000
      Metadata:
        title           : 第 28 章
  Stream #0:0(eng): Video: hevc (Main 10), yuv420p10le(tv, bt2020nc/bt2020/smpte2084), 3840x1600, SAR 1:1 DAR 12:5, 23.98 fps, 23.98 tbr, 1k tbn (default)
    Metadata:
      title           : HEVC, x265Main10@L5.1@High, 24000/1001 fps @ 18469 kbps
      BPS             : 18478743
      DURATION        : 02:23:58.297000000
      NUMBER_OF_FRAMES: 207112
      NUMBER_OF_BYTES : 19953109331
      _STATISTICS_WRITING_APP: mkvmerge v69.0.0 ('Day And Age') 64-bit
      _STATISTICS_WRITING_DATE_UTC: 2022-07-27 10:01:36
      _STATISTICS_TAGS: BPS DURATION NUMBER_OF_FRAMES NUMBER_OF_BYTES
  Stream #0:1(eng): Audio: truehd, 48000 Hz, 7.1, s32 (24 bit) (default)
    Metadata:
      title           : English Dolby TrueHD(Atmos) Audio 7.1@ 5992 kbps
      BPS             : 5351811
      DURATION        : 02:23:58.297000000
      NUMBER_OF_FRAMES: 10365956
      NUMBER_OF_BYTES : 5778817200
      SOURCE_ID       : 001100
      _STATISTICS_WRITING_APP: mkvmerge v69.0.0 ('Day And Age') 64-bit
      _STATISTICS_WRITING_DATE_UTC: 2022-07-27 10:01:36
      _STATISTICS_TAGS: BPS DURATION NUMBER_OF_FRAMES NUMBER_OF_BYTES SOURCE_ID
  Stream #0:2(eng): Audio: ac3, 48000 Hz, 5.1(side), fltp, 640 kb/s
    Metadata:
      title           : English Dolby Digital Audio 5.1 @ 448 kbps
      BPS             : 640000
      DURATION        : 02:23:58.304000000
      NUMBER_OF_FRAMES: 269947
      NUMBER_OF_BYTES : 691064320
      SOURCE_ID       : 001100
      _STATISTICS_WRITING_APP: mkvmerge v69.0.0 ('Day And Age') 64-bit
      _STATISTICS_WRITING_DATE_UTC: 2022-07-27 10:01:36
      _STATISTICS_TAGS: BPS DURATION NUMBER_OF_FRAMES NUMBER_OF_BYTES SOURCE_ID
  Stream #0:3(chi): Audio: truehd, 48000 Hz, 7.1, s32 (24 bit)
    Metadata:
      title           : Mandarin Dolby TrueHD Audio 7.1@ 2050 kbps 上译国配重混 by TANSHU
      BPS             : 2050418
      DURATION        : 02:23:56.300000000
      NUMBER_OF_FRAMES: 10363559
      NUMBER_OF_BYTES : 2213503704
      _STATISTICS_WRITING_APP: mkvmerge v69.0.0 ('Day And Age') 64-bit
      _STATISTICS_WRITING_DATE_UTC: 2022-07-27 10:01:36
      _STATISTICS_TAGS: BPS DURATION NUMBER_OF_FRAMES NUMBER_OF_BYTES
  Stream #0:4(chi): Audio: ac3, 48000 Hz, 5.1(side), fltp, 448 kb/s
    Metadata:
      title           : Mandarin Dolby Digital Audio 5.1 @ 448 kbps 上译国配重混 by TANSHU
      BPS             : 448000
      DURATION        : 02:23:56.320000000
      NUMBER_OF_FRAMES: 269885
      NUMBER_OF_BYTES : 483633920
      _STATISTICS_WRITING_APP: mkvmerge v69.0.0 ('Day And Age') 64-bit
      _STATISTICS_WRITING_DATE_UTC: 2022-07-27 10:01:36
      _STATISTICS_TAGS: BPS DURATION NUMBER_OF_FRAMES NUMBER_OF_BYTES
  Stream #0:5(eng): Audio: ac3, 48000 Hz, stereo, fltp, 224 kb/s
    Metadata:
      title           : English Dolby Digital Audio 2.0 @ 224 kbps Commentary
      BPS             : 224000
      DURATION        : 02:23:58.272000000
      NUMBER_OF_FRAMES: 269946
      NUMBER_OF_BYTES : 241871616
      SOURCE_ID       : 001107
      _STATISTICS_WRITING_APP: mkvmerge v69.0.0 ('Day And Age') 64-bit
      _STATISTICS_WRITING_DATE_UTC: 2022-07-27 10:01:36
      _STATISTICS_TAGS: BPS DURATION NUMBER_OF_FRAMES NUMBER_OF_BYTES SOURCE_ID
  Stream #0:6(eng): Audio: ac3, 48000 Hz, 5.1(side), fltp, 448 kb/s
    Metadata:
      title           : English Dolby Digital Audio 5.1 @ 448 kbps Visual description
      BPS             : 448000
      DURATION        : 02:23:58.272000000
      NUMBER_OF_FRAMES: 269946
      NUMBER_OF_BYTES : 483743232
      SOURCE_ID       : 001101
      _STATISTICS_WRITING_APP: mkvmerge v69.0.0 ('Day And Age') 64-bit
      _STATISTICS_WRITING_DATE_UTC: 2022-07-27 10:01:36
      _STATISTICS_TAGS: BPS DURATION NUMBER_OF_FRAMES NUMBER_OF_BYTES SOURCE_ID
  Stream #0:7(eng): Subtitle: hdmv_pgs_subtitle
    Metadata:
      title           : Eng/SUP
      BPS             : 29925
      DURATION        : 02:21:45.497000000
      NUMBER_OF_FRAMES: 3818
      NUMBER_OF_BYTES : 31816321
      SOURCE_ID       : 0012a0
      _STATISTICS_WRITING_APP: mkvmerge v69.0.0 ('Day And Age') 64-bit
      _STATISTICS_WRITING_DATE_UTC: 2022-07-27 10:01:36
      _STATISTICS_TAGS: BPS DURATION NUMBER_OF_FRAMES NUMBER_OF_BYTES SOURCE_ID
  Stream #0:8(chi): Subtitle: hdmv_pgs_subtitle
    Metadata:
      title           : Chs/SUP 简体中文
      BPS             : 20484
      DURATION        : 02:22:46.599000000
      NUMBER_OF_FRAMES: 2471
      NUMBER_OF_BYTES : 21935516
      SOURCE_ID       : 0012aa
      _STATISTICS_WRITING_APP: mkvmerge v69.0.0 ('Day And Age') 64-bit
      _STATISTICS_WRITING_DATE_UTC: 2022-07-27 10:01:36
      _STATISTICS_TAGS: BPS DURATION NUMBER_OF_FRAMES NUMBER_OF_BYTES SOURCE_ID
  Stream #0:9(chi): Subtitle: hdmv_pgs_subtitle
    Metadata:
      title           : Cht/SUP 繁体中文
      BPS             : 20970
      DURATION        : 02:22:46.599000000
      NUMBER_OF_FRAMES: 2471
      NUMBER_OF_BYTES : 22456054
      SOURCE_ID       : 0012ab
      _STATISTICS_WRITING_APP: mkvmerge v69.0.0 ('Day And Age') 64-bit
      _STATISTICS_WRITING_DATE_UTC: 2022-07-27 10:01:36
      _STATISTICS_TAGS: BPS DURATION NUMBER_OF_FRAMES NUMBER_OF_BYTES SOURCE_ID
  Stream #0:10(chi): Subtitle: hdmv_pgs_subtitle
    Metadata:
      title           : Cht/SUP 原盘繁体中文
      BPS             : 16178
      DURATION        : 02:22:49.436000000
      NUMBER_OF_FRAMES: 2950
      NUMBER_OF_BYTES : 17330465
      SOURCE_ID       : 0012ac
      _STATISTICS_WRITING_APP: mkvmerge v69.0.0 ('Day And Age') 64-bit
      _STATISTICS_WRITING_DATE_UTC: 2022-07-27 10:01:36
      _STATISTICS_TAGS: BPS DURATION NUMBER_OF_FRAMES NUMBER_OF_BYTES SOURCE_ID
  Stream #0:11(chi): Subtitle: hdmv_pgs_subtitle
    Metadata:
      title           : Cht/SUP 原盘繁体中文
      BPS             : 17354
      DURATION        : 02:22:49.436000000
      NUMBER_OF_FRAMES: 2948
      NUMBER_OF_BYTES : 18589578
      SOURCE_ID       : 0012ad
      _STATISTICS_WRITING_APP: mkvmerge v69.0.0 ('Day And Age') 64-bit
      _STATISTICS_WRITING_DATE_UTC: 2022-07-27 10:01:36
      _STATISTICS_TAGS: BPS DURATION NUMBER_OF_FRAMES NUMBER_OF_BYTES SOURCE_ID
  Stream #0:12(chi): Subtitle: hdmv_pgs_subtitle
    Metadata:
      title           : Chs/SUP 简英双语
      BPS             : 35752
      DURATION        : 02:22:46.599000000
      NUMBER_OF_FRAMES: 2471
      NUMBER_OF_BYTES : 38284905
      SOURCE_ID       : 0012be
      _STATISTICS_WRITING_APP: mkvmerge v69.0.0 ('Day And Age') 64-bit
      _STATISTICS_WRITING_DATE_UTC: 2022-07-27 10:01:36
      _STATISTICS_TAGS: BPS DURATION NUMBER_OF_FRAMES NUMBER_OF_BYTES SOURCE_ID
  Stream #0:13(chi): Subtitle: hdmv_pgs_subtitle
    Metadata:
      title           : Cht/SUP 繁英双语
      BPS             : 36253
      DURATION        : 02:22:46.599000000
      NUMBER_OF_FRAMES: 2471
      NUMBER_OF_BYTES : 38821417
      SOURCE_ID       : 0012bf
      _STATISTICS_WRITING_APP: mkvmerge v69.0.0 ('Day And Age') 64-bit
      _STATISTICS_WRITING_DATE_UTC: 2022-07-27 10:01:36
      _STATISTICS_TAGS: BPS DURATION NUMBER_OF_FRAMES NUMBER_OF_BYTES SOURCE_ID
  Stream #0:14(chi): Subtitle: hdmv_pgs_subtitle
    Metadata:
      title           : Chs/SUP 国配简体特效 by jackywang
      BPS             : 16847
      DURATION        : 02:23:27.557000000
      NUMBER_OF_FRAMES: 3827
      NUMBER_OF_BYTES : 18127406
      _STATISTICS_WRITING_APP: mkvmerge v69.0.0 ('Day And Age') 64-bit
      _STATISTICS_WRITING_DATE_UTC: 2022-07-27 10:01:36
      _STATISTICS_TAGS: BPS DURATION NUMBER_OF_FRAMES NUMBER_OF_BYTES
  Stream #0:15(chi): Subtitle: hdmv_pgs_subtitle
    Metadata:
      title           : Chs/SUP 国配简体特效黑边内 by knuc12345
      BPS             : 32880
      DURATION        : 02:23:28.600000000
      NUMBER_OF_FRAMES: 3944
      NUMBER_OF_BYTES : 35382107
      _STATISTICS_WRITING_APP: mkvmerge v69.0.0 ('Day And Age') 64-bit
      _STATISTICS_WRITING_DATE_UTC: 2022-07-27 10:01:36
      _STATISTICS_TAGS: BPS DURATION NUMBER_OF_FRAMES NUMBER_OF_BYTES
  Stream #0:16(chi): Subtitle: hdmv_pgs_subtitle
    Metadata:
      title           : Chs/SUP 国配繁体特效黑边内 by knuc12345
      BPS             : 34659
      DURATION        : 02:23:28.600000000
      NUMBER_OF_FRAMES: 3944
      NUMBER_OF_BYTES : 37296669
      _STATISTICS_WRITING_APP: mkvmerge v69.0.0 ('Day And Age') 64-bit
      _STATISTICS_WRITING_DATE_UTC: 2022-07-27 10:01:36
      _STATISTICS_TAGS: BPS DURATION NUMBER_OF_FRAMES NUMBER_OF_BYTES
  Stream #0:17(chi): Subtitle: hdmv_pgs_subtitle (default)
    Metadata:
      title           : Chs/SUP 国配简英特效黑边内 by knuc12345
      BPS             : 46995
      DURATION        : 02:23:28.600000000
      NUMBER_OF_FRAMES: 3944
      NUMBER_OF_BYTES : 50570972
      _STATISTICS_WRITING_APP: mkvmerge v69.0.0 ('Day And Age') 64-bit
      _STATISTICS_WRITING_DATE_UTC: 2022-07-27 10:01:36
      _STATISTICS_TAGS: BPS DURATION NUMBER_OF_FRAMES NUMBER_OF_BYTES
  Stream #0:18(chi): Subtitle: hdmv_pgs_subtitle
    Metadata:
      title           : Chs/SUP 国配繁英特效黑边内 by knuc12345
      BPS             : 48754
      DURATION        : 02:23:28.600000000
      NUMBER_OF_FRAMES: 3944
      NUMBER_OF_BYTES : 52463537
      _STATISTICS_WRITING_APP: mkvmerge v69.0.0 ('Day And Age') 64-bit
      _STATISTICS_WRITING_DATE_UTC: 2022-07-27 10:01:36
      _STATISTICS_TAGS: BPS DURATION NUMBER_OF_FRAMES NUMBER_OF_BYTES
  Stream #0:19(eng): Subtitle: hdmv_pgs_subtitle
    Metadata:
      title           : Eng/SUP 图形字幕 commentary
      BPS             : 68662
      DURATION        : 02:23:46.035000000
      NUMBER_OF_FRAMES: 5098
      NUMBER_OF_BYTES : 74036165
      SOURCE_ID       : 0012b1
      _STATISTICS_WRITING_APP: mkvmerge v69.0.0 ('Day And Age') 64-bit
      _STATISTICS_WRITING_DATE_UTC: 2022-07-27 10:01:36
      _STATISTICS_TAGS: BPS DURATION NUMBER_OF_FRAMES NUMBER_OF_BYTES SOURCE_ID
  Stream #0:20(vie): Subtitle: subrip (default) (forced)
    Metadata:
      title           : MEOMEO
      BPS             : 53
      DURATION        : 02:13:35.223000000
      NUMBER_OF_FRAMES: 1406
      NUMBER_OF_BYTES : 53874
      _STATISTICS_WRITING_APP: mkvmerge v69.0.0 ('Day And Age') 64-bit
      _STATISTICS_WRITING_DATE_UTC: 2022-07-27 10:01:36
      _STATISTICS_TAGS: BPS DURATION NUMBER_OF_FRAMES NUMBER_OF_BYTES
  Stream #0:21: Video: mjpeg (Progressive), yuvj420p(pc, bt470bg/unknown/unknown), 1594x2362 [SAR 1:1 DAR 797:1181], 90k tbr, 90k tbn (attached pic)
    Metadata:
      filename        : cover.jpg
      mimetype        : image/jpeg
At least one output file must be specified
